<svg xmlns="http://www.w3.org/2000/svg" viewBox="0 0 84.75 30.49"><defs><style>.cls-1{fill:#fff;}</style></defs><g id="Calque_2" data-name="Calque 2"><g id="Calque_1-2" data-name="Calque 1"><path class="cls-1" d="M0,15.16a1.5,1.5,0,0,0,1.5,1.5H79.66L68.4,27.93a1.5,1.5,0,0,0,1.06,2.56,1.53,1.53,0,0,0,1.06-.44l13.79-13.8c0-.05.07-.11.12-.17l.12-.19a2.56,2.56,0,0,0,.11-.24,1.16,1.16,0,0,0,.08-.42s0,0,0-.05v0a1.47,1.47,0,0,0-.64-1.22L70.62.44A1.5,1.5,0,0,0,68.5,2.56l11.09,11.1H1.5A1.5,1.5,0,0,0,0,15.16Z"/></g></g></svg>